<svg width="36" height="36" viewBox="0 0 36 36" fill="none" xmlns="http://www.w3.org/2000/svg">
<path d="M27.0002 27L30.0002 25.5V21.75M21.0002 15L18.0002 16.5L21.0002 15ZM18.0002 16.5L15.0002 15L18.0002 16.5ZM18.0002 16.5V20.25V16.5ZM30.0002 10.5L27.0002 12L30.0002 10.5ZM30.0002 10.5L27.0002 9L30.0002 10.5ZM30.0002 10.5V14.25V10.5ZM21.0002 6L18.0002 4.5L15.0002 6H21.0002ZM6.0002 10.5L9.0002 9L6.0002 10.5ZM6.0002 10.5L9.0002 12L6.0002 10.5ZM6.0002 10.5V14.25V10.5ZM18.0002 31.5L15.0002 30L18.0002 31.5ZM18.0002 31.5L21.0002 30L18.0002 31.5ZM18.0002 31.5V27.75V31.5ZM9.0002 27L6.0002 25.5V21.75L9.0002 27Z" stroke="#B8B8B8" stroke-linecap="round" stroke-linejoin="round"/>
</svg>
