<svg width="37" height="37" viewBox="0 0 37 37" fill="none" xmlns="http://www.w3.org/2000/svg">
<path d="M13.875 18.5C13.875 15.9457 15.9457 13.875 18.5 13.875C21.0543 13.875 23.125 15.9457 23.125 18.5C23.125 21.0543 21.0543 23.125 18.5 23.125C15.9457 23.125 13.875 21.0543 13.875 18.5ZM15.4167 18.5C15.4167 20.2029 16.7971 21.5833 18.5 21.5833C20.2029 21.5833 21.5833 20.2029 21.5833 18.5C21.5833 16.7971 20.2029 15.4166 18.5 15.4166C16.7971 15.4166 15.4167 16.7971 15.4167 18.5ZM12.1341 13.6213C11.8485 13.937 11.361 13.9614 11.0453 13.6757C10.7296 13.3901 10.7053 12.9026 10.9909 12.587C11.2171 12.337 11.4556 12.0985 11.7055 11.8724C15.8527 8.11987 22.2566 8.4398 26.0091 12.587C26.2947 12.9026 26.2704 13.3901 25.9547 13.6757C25.639 13.9614 25.1516 13.937 24.8659 13.6213C21.6847 10.1055 16.2557 9.83429 12.7399 13.0155C12.528 13.2072 12.3258 13.4094 12.1341 13.6213ZM29.1084 9.52183C29.384 9.84632 29.3443 10.3328 29.0198 10.6083C28.6953 10.8839 28.2089 10.8443 27.9333 10.5198C23.5088 5.30992 15.6986 4.67328 10.4887 9.09781C9.97691 9.53244 9.50135 10.008 9.06672 10.5198C8.79114 10.8443 8.30469 10.8839 7.9802 10.6083C7.65571 10.3328 7.61605 9.84632 7.89163 9.52183C8.38041 8.9463 8.91521 8.4115 9.49074 7.92272C15.3496 2.94704 24.1327 3.66299 29.1084 9.52183ZM24.864 23.3807C25.1485 23.064 25.6359 23.0379 25.9526 23.3223C26.2693 23.6068 26.2954 24.0942 26.011 24.4109C22.2851 28.5591 15.9019 28.9014 11.7537 25.1756C11.4853 24.9345 11.2301 24.6793 10.989 24.4109C10.7046 24.0942 10.7307 23.6068 11.0474 23.3223C11.3641 23.0379 11.8515 23.064 12.136 23.3807C12.3402 23.6081 12.5565 23.8244 12.7839 24.0286C16.2986 27.1855 21.7071 26.8955 24.864 23.3807ZM27.9336 26.4799C28.2093 26.1555 28.6958 26.1161 29.0201 26.3919C29.3445 26.6676 29.3839 27.1541 29.1081 27.4784C24.1272 33.3371 15.3399 34.0487 9.48122 29.0678C8.90948 28.5817 8.37798 28.0502 7.8919 27.4784C7.61615 27.1541 7.65554 26.6676 7.97988 26.3919C8.30422 26.1161 8.7907 26.1555 9.06645 26.4798C9.49871 26.9883 9.97137 27.4609 10.4798 27.8932C15.6898 32.3226 23.5041 31.6899 27.9336 26.4799Z" fill="#B8B8B8"/>
</svg>
