<svg width="32" height="32" viewBox="0 0 32 32" fill="none" xmlns="http://www.w3.org/2000/svg">
<path d="M16.2274 1.6958C15.9717 1.70048 15.728 1.80537 15.5488 1.9879C15.3696 2.17043 15.2693 2.41601 15.2693 2.6718V21.2238C15.2693 21.4826 15.3721 21.7309 15.5552 21.9139C15.7382 22.097 15.9864 22.1998 16.2453 22.1998C16.5041 22.1997 16.7523 22.0969 16.9353 21.9138C17.1182 21.7308 17.221 21.4826 17.221 21.2238V2.67193C17.221 2.54226 17.1952 2.4139 17.1451 2.29432C17.0949 2.17474 17.0215 2.06636 16.929 1.97549C16.8365 1.88463 16.7268 1.81311 16.6063 1.76511C16.4859 1.71711 16.3571 1.69359 16.2274 1.69593V1.6958ZM30.9929 7.2538C30.8658 7.25758 30.7406 7.28611 30.6244 7.3378L22.248 11.0759C22.0765 11.1533 21.931 11.2785 21.829 11.4365C21.7269 11.5945 21.6727 11.7786 21.6727 11.9667C21.6727 12.1548 21.7269 12.3388 21.829 12.4968C21.931 12.6548 22.0765 12.78 22.248 12.8574L30.6244 16.6086C30.7499 16.665 30.8858 16.6944 31.0234 16.695C31.2471 16.6951 31.4641 16.6183 31.6379 16.4775C31.8118 16.3367 31.932 16.1404 31.9784 15.9216C32.0249 15.7028 31.9947 15.4746 31.893 15.2753C31.7914 15.0761 31.6243 14.9178 31.4198 14.827L25.0385 11.9679L31.4198 9.11913C31.6555 9.01303 31.8397 8.81796 31.9321 8.57654C32.0245 8.33512 32.0176 8.06695 31.9129 7.8306C31.8337 7.65433 31.704 7.50547 31.5403 7.4028C31.3765 7.30012 31.1861 7.24823 30.9929 7.25366V7.2538ZM0.994227 13.9631C0.843734 13.9602 0.694614 13.9922 0.558536 14.0565C0.422458 14.1209 0.303114 14.2158 0.209844 14.334C0.116574 14.4521 0.0519097 14.5902 0.0209107 14.7375C-0.0100882 14.8848 -0.00658039 15.0373 0.0311597 15.183C2.34583 24.0857 10.3976 30.3043 19.6074 30.3043C19.8663 30.3043 20.1145 30.2015 20.2976 30.0185C20.4806 29.8354 20.5834 29.5872 20.5834 29.3283C20.5834 29.0695 20.4806 28.8212 20.2976 28.6382C20.1145 28.4552 19.8663 28.3523 19.6074 28.3523C15.5632 28.3537 11.6327 27.0134 8.43188 24.5415C5.23102 22.0696 2.94059 18.6057 1.91943 14.6925C1.8658 14.4867 1.74639 14.304 1.57936 14.1724C1.41234 14.0407 1.20686 13.9672 0.994227 13.9631Z" fill="#B8B8B8"/>
</svg>
