<svg width="316" height="294" viewBox="0 0 316 294" fill="none" xmlns="http://www.w3.org/2000/svg">
<path d="M289.93 0.607303C316.626 35.1372 330.383 67.4228 285.819 50.8999M285.819 50.8999C278.025 48.01 268.447 43.6272 256.842 37.5021C192.296 3.43453 188.702 19.6895 204.643 47.5051M285.819 50.8999C281.409 42.9445 275.255 33.9716 268.196 24.8417M285.819 50.8999C298.09 73.0324 296.867 87.2885 264.086 75.1343M204.643 47.5051C209.467 55.924 216.081 65.4018 223.336 74.864M204.643 47.5051C212.788 50.6106 222.849 55.2658 235.109 61.7365C246.714 67.8616 256.292 72.2444 264.086 75.1343M204.643 47.5051C169.902 34.2609 169.997 49.2072 182.909 71.7395M264.086 75.1343C259.675 67.1789 253.521 58.206 246.463 49.0761M264.086 75.1343C276.357 97.2668 275.133 111.523 242.353 99.3687M182.909 71.7395C187.734 80.1584 194.348 89.6362 201.603 99.0984M182.909 71.7395C191.055 74.8449 201.116 79.5002 213.376 85.9709C224.981 92.0959 234.559 96.4788 242.353 99.3687M182.909 71.7395C148.169 58.4953 148.263 73.4416 161.176 95.9739M242.353 99.3687C237.942 91.4133 231.788 82.4404 224.73 73.3105M242.353 99.3687C254.623 121.501 253.4 135.757 220.619 123.603M161.176 95.9739C166.001 104.393 172.615 113.871 179.87 123.333M161.176 95.9739C169.322 99.0793 179.383 103.735 191.642 110.205C203.247 116.33 212.825 120.713 220.619 123.603M161.176 95.9739C126.435 82.7297 126.53 97.676 139.443 120.208M220.619 123.603C216.209 115.648 210.055 106.675 202.996 97.5449M220.619 123.603C232.89 145.736 231.667 159.992 198.886 147.837M139.443 120.208C144.267 128.627 150.881 138.105 158.136 147.567M139.443 120.208C147.588 123.314 157.649 127.969 169.909 134.44C181.514 140.565 191.092 144.948 198.886 147.837M139.443 120.208C104.702 106.964 104.797 121.91 117.709 144.443M198.886 147.837C194.475 139.882 188.321 130.909 181.263 121.779M198.886 147.837C211.157 169.97 209.933 184.226 177.153 172.072M117.709 144.443C122.534 152.862 129.148 162.339 136.403 171.802M117.709 144.443C125.855 147.548 135.916 152.203 148.176 158.674C159.78 164.799 169.359 169.182 177.153 172.072M117.709 144.443C82.9687 131.198 83.0633 146.145 95.9759 168.677M177.153 172.072C172.742 164.117 166.588 155.144 159.529 146.014M177.153 172.072C189.423 194.204 188.2 208.46 155.419 196.306M95.9759 168.677C100.8 177.096 107.415 186.574 114.67 196.036M95.9759 168.677C104.122 171.783 114.182 176.438 126.442 182.909C138.047 189.034 147.625 193.416 155.419 196.306M95.9759 168.677C61.2354 155.433 61.3299 170.379 74.2425 192.912M155.419 196.306C151.009 188.351 144.855 179.378 137.796 170.248M155.419 196.306C167.69 218.439 166.466 232.695 133.686 220.541M74.2425 192.912C79.0671 201.33 85.6812 210.808 92.9362 220.27M74.2425 192.912C82.3882 196.017 92.4491 200.672 104.709 207.143C116.314 213.268 125.892 217.651 133.686 220.541M74.2425 192.912C39.502 179.667 39.5965 194.614 52.5092 217.146M133.686 220.541C129.275 212.585 123.121 203.612 116.063 194.482M133.686 220.541C145.956 242.673 144.733 256.929 111.952 244.775M52.5092 217.146C57.3337 225.565 63.9478 235.043 71.2028 244.505M52.5092 217.146C60.6549 220.251 70.7157 224.907 82.9755 231.377C94.5804 237.502 104.158 241.885 111.952 244.775M52.5092 217.146C17.7686 203.902 17.8632 218.848 30.7758 241.38M111.952 244.775C107.542 236.82 101.388 227.847 94.3294 218.717M111.952 244.775C127.141 272.17 121.655 287.498 61.2422 255.612C48.9824 249.141 38.9215 244.486 30.7758 241.38M30.7758 241.38C35.6004 249.799 42.2144 259.277 49.4695 268.739M30.7758 241.38C-16.9449 223.188 1.06346 258.187 27.7361 292.974" stroke="url(#paint0_linear_1_369)"/>
<defs>
<linearGradient id="paint0_linear_1_369" x1="197.356" y1="181.422" x2="118.141" y2="110.383" gradientUnits="userSpaceOnUse">
<stop offset="0.14407" stop-color="#99A9FF"/>
<stop offset="0.726512" stop-color="#66FFE5" stop-opacity="0.35"/>
</linearGradient>
</defs>
</svg>
