<svg width="315" height="294" viewBox="0 0 315 294" fill="none" xmlns="http://www.w3.org/2000/svg">
<path d="M289.683 0.732794C316.379 35.2627 330.136 67.5483 285.573 51.0254M285.573 51.0254C277.779 48.1355 268.201 43.7527 256.596 37.6276C192.049 3.56002 188.456 19.815 204.396 47.6306M285.573 51.0254C281.162 43.07 275.008 34.0971 267.95 24.9672M285.573 51.0254C297.843 73.1578 296.62 87.414 263.839 75.2598M204.396 47.6306C209.221 56.0495 215.835 65.5273 223.09 74.9895M204.396 47.6306C212.542 50.736 222.603 55.3913 234.862 61.862C246.467 67.9871 256.045 72.3699 263.839 75.2598M204.396 47.6306C169.656 34.3864 169.75 49.3327 182.663 71.865M263.839 75.2598C259.429 67.3044 253.275 58.3315 246.216 49.2016M263.839 75.2598C276.11 97.3922 274.887 111.648 242.106 99.4942M182.663 71.865C187.487 80.2838 194.101 89.7617 201.356 99.2239M182.663 71.865C190.808 74.9704 200.869 79.6257 213.129 86.0964C224.734 92.2214 234.312 96.6043 242.106 99.4942M182.663 71.865C147.922 58.6208 148.017 73.5671 160.929 96.0994M242.106 99.4942C237.696 91.5388 231.542 82.5658 224.483 73.436M242.106 99.4942C254.377 121.627 253.153 135.883 220.373 123.729M160.929 96.0994C165.754 104.518 172.368 113.996 179.623 123.458M160.929 96.0994C169.075 99.2048 179.136 103.86 191.396 110.331C203.001 116.456 212.579 120.839 220.373 123.729M160.929 96.0994C126.189 82.8552 126.283 97.8015 139.196 120.334M220.373 123.729C215.962 115.773 209.808 106.8 202.75 97.6704M220.373 123.729C232.643 145.861 231.42 160.117 198.639 147.963M139.196 120.334C144.021 128.753 150.635 138.231 157.89 147.693M139.196 120.334C147.342 123.439 157.403 128.094 169.662 134.565C181.267 140.69 190.845 145.073 198.639 147.963M139.196 120.334C104.456 107.09 104.55 122.036 117.463 144.568M198.639 147.963C194.229 140.008 188.075 131.035 181.016 121.905M198.639 147.963C210.91 170.095 209.687 184.352 176.906 172.197M117.463 144.568C122.287 152.987 128.901 162.465 136.156 171.927M117.463 144.568C125.608 147.674 135.669 152.329 147.929 158.8C159.534 164.925 169.112 169.308 176.906 172.197M117.463 144.568C82.7221 131.324 82.8167 146.27 95.7293 168.803M176.906 172.197C172.495 164.242 166.341 155.269 159.283 146.139M176.906 172.197C189.177 194.33 187.953 208.586 155.173 196.432M95.7293 168.803C100.554 177.221 107.168 186.699 114.423 196.161M95.7293 168.803C103.875 171.908 113.936 176.563 126.196 183.034C137.801 189.159 147.379 193.542 155.173 196.432M95.7293 168.803C60.9888 155.558 61.0833 170.505 73.9959 193.037M155.173 196.432C150.762 188.476 144.608 179.503 137.55 170.374M155.173 196.432C167.443 218.564 166.22 232.82 133.439 220.666M73.9959 193.037C78.8205 201.456 85.4346 210.934 92.6896 220.396M73.9959 193.037C82.1416 196.142 92.2025 200.798 104.462 207.268C116.067 213.393 125.645 217.776 133.439 220.666M73.9959 193.037C39.2554 179.793 39.3499 194.739 52.2626 217.271M133.439 220.666C129.029 212.711 122.875 203.738 115.816 194.608M133.439 220.666C145.71 242.799 144.487 257.055 111.706 244.901M52.2626 217.271C57.0872 225.69 63.7012 235.168 70.9563 244.63M52.2626 217.271C60.4083 220.377 70.4691 225.032 82.7289 231.503C94.3338 237.628 103.912 242.011 111.706 244.901M52.2626 217.271C17.522 204.027 17.6166 218.973 30.5292 241.506M111.706 244.901C107.295 236.945 101.141 227.972 94.0828 218.842M111.706 244.901C126.894 272.295 121.409 287.623 60.9956 255.737C48.7358 249.266 38.6749 244.611 30.5292 241.506M30.5292 241.506C35.3538 249.925 41.9678 259.402 49.2229 268.865M30.5292 241.506C-17.1915 223.313 0.816868 258.312 27.4895 293.099" stroke="url(#paint0_linear_1_368)"/>
<defs>
<linearGradient id="paint0_linear_1_368" x1="83.6633" y1="164.77" x2="265.601" y2="89.9219" gradientUnits="userSpaceOnUse">
<stop stop-color="#99A9FF"/>
<stop offset="1" stop-color="#5CE5CF"/>
</linearGradient>
</defs>
</svg>
