<svg width="34" height="34" viewBox="0 0 34 34" fill="none" xmlns="http://www.w3.org/2000/svg">
<path d="M14.1165 8.50001C13.8058 10.6715 12.0882 12.3892 9.91667 12.6998V21.3002C12.3195 21.6439 14.1667 23.7104 14.1667 26.2083C14.1667 28.9468 11.9467 31.1667 9.20833 31.1667C6.46992 31.1667 4.25 28.9468 4.25 26.2083C4.25 23.7104 6.09713 21.6439 8.5 21.3002V12.6998C6.09713 12.3561 4.25 10.2896 4.25 7.79168C4.25 5.05327 6.46992 2.83334 9.20833 2.83334C11.7063 2.83334 13.7728 4.68047 14.1165 7.08334H20.5417C24.0625 7.08334 26.9167 9.93753 26.9167 13.4583V14.2169C29.3195 14.5606 31.1667 16.6271 31.1667 19.125C31.1667 21.8634 28.9467 24.0833 26.2083 24.0833C23.4699 24.0833 21.25 21.8634 21.25 19.125C21.25 16.6271 23.0971 14.5606 25.5 14.2169V13.4583C25.5 10.7199 23.2801 8.50001 20.5417 8.50001H14.1165ZM5.66667 7.79168C5.66667 9.74769 7.25233 11.3333 9.20833 11.3333C11.1643 11.3333 12.75 9.74769 12.75 7.79168C12.75 5.83567 11.1643 4.25001 9.20833 4.25001C7.25233 4.25001 5.66667 5.83567 5.66667 7.79168ZM5.66667 26.2083C5.66667 28.1644 7.25233 29.75 9.20833 29.75C11.1643 29.75 12.75 28.1644 12.75 26.2083C12.75 24.2523 11.1643 22.6667 9.20833 22.6667C7.25233 22.6667 5.66667 24.2523 5.66667 26.2083ZM26.2083 15.5833C24.2523 15.5833 22.6667 17.169 22.6667 19.125C22.6667 21.081 24.2523 22.6667 26.2083 22.6667C28.1643 22.6667 29.75 21.081 29.75 19.125C29.75 17.169 28.1643 15.5833 26.2083 15.5833Z" fill="#B8B8B8"/>
</svg>
